Coordinates
version=1
nRows=10
nColumns=46
inDegrees=yes

Units are S.I. units (second, meters, Newtons, ...)
Angles are in degrees.

endheader
time	pelvis_tilt	pelvis_list	pelvis_rotation	pelvis_tx	pelvis_ty	pelvis_tz	bb_angle	bb_tx	bb_ty	bb_tz	hip_flexion_r	hip_adduction_r	hip_rotation_r	knee_angle_r	knee_angle_r_beta	ankle_angle_r	subtalar_angle_r	mtp_angle_r	crank_angle_r	hip_flexion_l	hip_adduction_l	hip_rotation_l	knee_angle_l	knee_angle_l_beta	ankle_angle_l	subtalar_angle_l	mtp_angle_l	crank_angle_l	lumbar_extension	lumbar_bending	lumbar_rotation	arm_flex_r	arm_add_r	arm_rot_r	elbow_flex_r	pro_sup_r	wrist_flex_r	wrist_dev_r	arm_flex_l	arm_add_l	arm_rot_l	elbow_flex_l	pro_sup_l	wrist_flex_l	wrist_dev_l
      0.00500000	    -15.01281123	     -1.84829673	     -3.37453763	      0.06072498	      1.15201788	     -0.22690362	      0.00000000	      0.50000000	      0.00000000	      0.25000000	     84.09311505	      2.97896780	      4.27181557	     89.69469912	      1.56546782	      6.10135843	     -8.23749626	      0.00000000	      0.00000000	     43.14602352	     -7.38837713	      0.70714826	     59.86089273	      1.04476967	     13.96068850	     -6.61308652	      0.00000000	      0.00000000	    -61.23041833	      0.44692144	      2.85222358	     89.53543464	     -8.27197616	     27.37556748	     54.78228453	     33.75334871	      0.00000000	      0.00000000	     89.27678592	    -12.73436777	     28.17402372	     53.68303373	     36.36369766	      0.00000000	      0.00000000
      0.01000000	    -15.05082485	     -1.84618140	     -3.32121293	      0.06070252	      1.15191768	     -0.22705077	      0.00000000	      0.50000000	      0.00000000	      0.25000000	     84.13217593	      2.90429182	      4.27348468	     89.71610367	      1.56584140	      6.25615920	     -7.99062413	      0.00000000	      0.00000000	     43.20769942	     -7.32546687	      0.77496494	     59.86951368	      1.04492014	     13.89248201	     -6.76176326	      0.00000000	      0.00000000	    -61.16320239	      0.50162764	      2.79277541	     89.53743712	     -8.32087080	     27.59930184	     54.61873846	     34.39932888	      0.00000000	      0.00000000	     89.29553263	    -12.92994760	     28.59136197	     53.52794120	     36.94103626	      0.00000000	      0.00000000
      0.01500000	    -14.98880697	     -1.83872659	     -3.33310580	      0.06071705	      1.15206033	     -0.22699078	      0.00000000	      0.50000000	      0.00000000	      0.25000000	     84.04945318	      2.92282326	      4.28238764	     89.70524720	      1.56565192	      6.28722058	     -8.03136841	      0.00000000	      0.00000000	     43.12029268	     -7.33648367	      0.74000092	     59.83584303	      1.04433247	     13.88344736	     -6.76904254	      0.00000000	      0.00000000	    -61.26181379	      0.45224994	      2.73348696	     89.54039704	     -8.28920842	     27.42461662	     54.56544540	     35.07784962	      0.00000000	      0.00000000	     89.28696145	    -12.92897569	     28.38040608	     53.58208668	     37.50015343	      0.00000000	      0.00000000
      0.02000000	    -14.93938986	     -1.82027763	     -3.29188949	      0.06073830	      1.15208918	     -0.22714943	      0.00000000	      0.50000000	      0.00000000	      0.25000000	     84.08156924	      2.78912445	      4.07126457	     89.79320748	      1.56718712	      5.94586074	     -8.50301588	      0.00000000	      0.00000000	     43.06335465	     -7.24584616	      0.83748635	     59.82932768	      1.04421876	     13.88805184	     -6.82766339	      0.00000000	      0.00000000	    -61.42229176	      0.69424665	      2.68653538	     89.54534891	     -8.01186615	     27.09731503	     54.94801007	     35.54587115	      0.00000000	      0.00000000	     89.24969867	    -13.18016607	     27.93065509	     53.91943797	     37.86965169	      0.00000000	      0.00000000
      0.02500000	    -14.81539970	     -2.26971352	     -3.68921780	      0.06136589	      1.15121418	     -0.22487490	      0.00000000	      0.50000000	      0.00000000	      0.25000000	     84.06971387	      3.44845325	      3.67286847	     89.86370470	      1.56841753	      5.72404837	     -8.49815585	      0.00000000	      0.00000000	     42.87147425	     -7.54140650	      1.05988742	     59.82128763	      1.04407843	     13.47802500	     -6.44581159	      0.00000000	      0.00000000	    -61.49874608	      0.79623826	      3.15060081	     89.54902237	     -7.52996228	     27.36371944	     54.88389024	     35.51733609	      0.00000000	      0.00000000	     89.23217410	    -13.36530009	     27.88291020	     53.55075376	     37.79983629	      0.00000000	      0.00000000
      0.03000000	    -14.88876573	     -1.85117514	     -3.23537464	      0.06092555	      1.15207103	     -0.22724750	      0.00000000	      0.50000000	      0.00000000	      0.25000000	     84.11421937	      2.66170143	      4.01399849	     89.80014985	      1.56730828	      5.67693372	     -8.50690806	      0.00000000	      0.00000000	     43.02266322	     -7.26888795	      0.81421058	     59.87050829	      1.04493749	     14.05350962	     -6.65703988	      0.00000000	      0.00000000	    -61.37658364	      0.59541279	      2.64428267	     89.53118737	     -8.11522439	     27.25161161	     54.59213760	     35.42037341	      0.00000000	      0.00000000	     89.26703977	    -13.07998781	     28.23754960	     53.65532127	     37.85309556	      0.00000000	      0.00000000
      0.03500000	    -14.87492691	     -1.75485124	     -3.23517539	      0.06096368	      1.15214974	     -0.22727419	      0.00000000	      0.50000000	      0.00000000	      0.25000000	     84.10402557	      2.61723313	      4.12455734	     89.82973468	      1.56782464	      5.82060735	     -8.26336580	      0.00000000	      0.00000000	     42.97614103	     -7.16911639	      0.77803013	     59.82150262	      1.04408218	     13.91671271	     -6.75652335	      0.00000000	      0.00000000	    -61.34391293	      0.52641447	      2.60552930	     89.53534917	     -8.21794254	     27.46959484	     54.40575093	     35.58647911	      0.00000000	      0.00000000	     89.29655786	    -13.09699745	     28.65248083	     53.42062726	     38.05073363	      0.00000000	      0.00000000
      0.04000000	    -14.90284663	     -1.83187347	     -3.31813109	      0.06077588	      1.15234661	     -0.22717436	      0.00000000	      0.50000000	      0.00000000	      0.25000000	     84.00628518	      2.76886176	      4.01514166	     89.76753368	      1.56673902	      6.02208979	     -8.52718180	      0.00000000	      0.00000000	     42.99201138	     -7.31977192	      0.71248398	     59.77410390	      1.04325492	     13.83904826	     -6.77746672	      0.00000000	      0.00000000	    -61.41551446	      0.50647453	      2.68216253	     89.53646561	     -8.18238263	     27.14616836	     54.59326499	     36.26580929	      0.00000000	      0.00000000	     89.27104519	    -13.07227683	     28.23405331	     53.72652751	     38.58184427	      0.00000000	      0.00000000
      0.04500000	    -15.00368298	     -1.76670890	     -3.31867985	      0.06071145	      1.15206082	     -0.22716681	      0.00000000	      0.50000000	      0.00000000	      0.25000000	     84.13354046	      2.79064007	      4.13377444	     89.78973397	      1.56712649	      6.04616272	     -8.49036529	      0.00000000	      0.00000000	     43.12751584	     -7.23041409	      0.76065088	     59.83664859	      1.04434653	     13.92146646	     -6.74360541	      0.00000000	      0.00000000	    -61.23062236	      0.45572416	      2.67454059	     89.53886127	     -8.23841679	     27.26560326	     54.13182097	     37.30284448	      0.00000000	      0.00000000	     89.29653324	    -12.97482840	     28.34028393	     53.16426204	     39.22794674	      0.00000000	      0.00000000
      0.05000000	    -14.95825335	     -1.75657184	     -3.37240221	      0.06073420	      1.15217056	     -0.22705995	      0.00000000	      0.50000000	      0.00000000	      0.25000000	     84.08095980	      2.85283901	      4.14005337	     89.77241511	      1.56682422	      5.97450125	     -8.65725469	      0.00000000	      0.00000000	     43.06134381	     -7.27871596	      0.68404283	     59.83136433	      1.04425430	     13.93014424	     -6.66518867	      0.00000000	      0.00000000	    -61.30561540	      0.39237730	      2.64095571	     89.54046093	     -8.09991827	     26.99589677	     54.00482293	     37.83109288	      0.00000000	      0.00000000	     89.27661487	    -12.87640747	     27.80123098	     53.20787276	     39.56032356	      0.00000000	      0.00000000
